<?xml version="1.0" encoding="UTF-8"?>
<svg id="Layer_1" data-name="Layer 1" xmlns="http://www.w3.org/2000/svg" viewBox="0 0 571 287">
  <defs>
    <style>
      .cls-1 {
        fill: #fff;
      }

      .cls-2 {
        fill: #652fc8;
      }

      .cls-3 {
        fill: #8847df;
      }

      .cls-4 {
        fill: #a65ef6;
      }
    </style>
  </defs>
  <path class="cls-4" d="M124.72,126.52c-.12-4.69-.13-9.39-.39-14.07-.36-6.57-2.13-8.18-8.76-8.25-10.82-.11-21.64-.17-32.46-.26-.29-2.15,.94-5.69-1.14-6.19-5.19-1.24-7.95-4.31-11.01-8.43-3.2-4.31-4.36-7.6-.59-12.06,1.17-1.38,2.83-2.41,2.92-4.48,4.84-4.06,9.83-7.96,14.47-12.23,3.59-3.3,7.08-2.96,10.42-.27,16.48,13.29,32.84,26.71,49.25,40.09,1.87,1.53,2.67,3.55,2.77,5.9,.58,13.64,.76,27.29-.05,40.93-2.21-4.87-7.91-7.83-7.34-14.35,.2-2.29-9.24-8.36-10.29-7.13-2.53,2.96-5.13,1.36-7.79,.81Z"/>
  <path class="cls-2" d="M99.73,163.55c1.52,9.32,.32,18.7,.67,28.05,.27,7.35,.39,14.7,.38,22.05,0,7.07-4.61,13.05-11.21,14.99-4.97,1.46-13.82-5.72-13.89-11.43-.24-18.38-.41-36.76-.58-55.14-.08-8.7-.05-8.87-8.65-9.1-13.88-.37-27.77-.64-41.65-.64-4.64,0-6.88-1.36-6.56-6.29,.27-4.07,.06-8.17,.07-12.25,.01-3.6,1.43-5.88,5.41-5.83,9.59,.11,19.17,.18,28.76,.27,1.37,2.9,4.83,2.9,6.92,5.24,4.2,4.72,8.95,9.2,16.12,9.24,1.88,0,2.17,1.94,2.7,3.57,1.14,3.5,2.33,7.22,7.55,5,2.13-.91,2.97,1.72,4.41,2.31,4.79,1.96,3.73,9.27,9.57,9.97Z"/>
  <path class="cls-1" d="M217.67,170.53c-5.62,0-9.91-.11-14.18,.03-3.58,.12-6.19,.05-6.21-4.95-.02-4.55,1.7-5.36,5.67-5.34,8.76,.04,17.53-.44,26.29-.52,3.04-.03,5.17-.45,5.13-4.19-.04-3.63-2.16-4.44-5.17-4.45-6.52-.02-13.05,0-19.57-.13-8.68-.19-13.3-4.36-13.75-12.21-.56-9.8,3.42-15.59,12.5-16.18,10.56-.68,21.19-.29,31.78-.38,4.45-.04,3.07,3.28,3.35,5.67,.35,2.97-.52,4.48-3.92,4.48-8.97-.01-17.94,.34-26.91,.42-2.92,.03-5.21,.16-5.11,4.11,.09,3.6,2.36,3.82,4.92,3.86,6.73,.11,13.46,.03,20.18,.26,7.81,.27,12.72,5.24,13.31,13.12,.67,9-2.75,13.9-10.75,15.68-6.27,1.4-12.6,.37-17.56,.72Z"/>
  <path class="cls-1" d="M368.88,146.23c0-6.53,.12-13.07-.05-19.6-.09-3.45,1.21-4.71,4.66-4.6,10.81,.36,21.64,.23,32.44,.83,9.38,.52,13.34,4.65,14.61,14.12,.93,6.91,.93,13.8-.1,20.74-.98,6.59-5,10.32-11.06,11.5-12.32,2.4-24.83,.94-37.26,1.25-3.38,.08-3.24-2.33-3.23-4.65,.01-6.53,0-13.07,0-19.6Zm10.86-.99c0,3.25,.02,6.51,0,9.76-.02,3.83,1.14,6.12,5.69,5.68,4.03-.39,8.13,.06,12.19-.1,9.41-.38,11.72-2.84,11.76-12.17q.07-16.58-16.84-16.33-12.79,.19-12.8,13.16Z"/>
  <path class="cls-1" d="M345.36,153.32c0-9.74,.23-18-.09-26.24-.17-4.35,1.85-4.95,5.47-5.11,4.02-.18,4.73,1.61,4.7,5.09-.14,12.23,.03,24.47-.1,36.7-.02,2.23,1.47,5.48-1.57,6.5-3.04,1.02-6.52,.99-9.12-1.71-3.39-3.52-6.7-7.11-10.04-10.68-5.06-5.42-10.11-10.85-16.43-17.64,0,9.41-.29,17.05,.1,24.65,.25,4.87-1.8,5.72-6.07,5.78-4.34,.06-5.01-1.81-4.94-5.52,.21-12.03,.06-24.06,.23-36.09,.03-2.38-1.46-5.67,2.3-6.73,3.32-.94,6.48-.47,9,2.23,8.06,8.64,16.13,17.27,24.2,25.91,.49,.52,.91,1.1,2.36,2.87Z"/>
  <path class="cls-1" d="M456.66,146.36c0-6.54,.12-13.08-.05-19.61-.08-3.17,.5-4.87,4.27-4.8,11.03,.2,22.06,0,33.09,.08,3.79,.03,7.27,4.69,6.53,8.42-.47,2.41-2.42,1.76-3.9,1.77-8.17,.08-16.34,.17-24.51,.04-3.07-.05-4.96,.24-4.9,4.15,.06,3.66,1.08,5.12,4.89,4.88,4.68-.29,9.41,.21,14.08-.16,4.13-.32,3.95,1.97,4.02,4.84,.07,3.09-.27,5.02-4.19,4.76-4.88-.33-9.82,.17-14.7-.15-4.05-.27-4.11,1.95-4.04,4.89,.07,2.79-.19,5.19,3.98,5.06,8.16-.27,16.34-.19,24.51,0,1.86,.04,5.55-1.54,5.23,1.87-.29,3.07-.13,7.91-5.55,7.94-11.64,.06-23.29-.04-34.93,.15-3.51,.06-3.99-1.65-3.94-4.52,.12-6.53,.04-13.07,.04-19.61,.02,0,.04,0,.06,0Z"/>
  <path class="cls-1" d="M509.03,146.1c0-6.33,.13-12.66-.05-18.99-.1-3.55,.87-5.18,4.8-5.1,10.41,.23,20.83,.06,31.24,.13,3.57,.02,7.31,4.95,6.52,8.37-.55,2.4-2.5,1.67-3.97,1.69-7.76,.07-15.52,.18-23.28-.02-3.52-.09-4.54,1.2-4.53,4.61,0,3.48,1.2,4.68,4.65,4.5,4.68-.25,9.4,.11,14.08-.16,3.75-.22,4.43,1.55,4.38,4.78-.05,2.99-.13,5.2-4.14,4.83-3.44-.32-7-.47-10.39,.06-3.18,.5-8.5-3.14-8.6,4.58-.09,7.45,4.92,4.87,8.34,5.01,6.73,.28,13.48-.03,20.21,.16,1.6,.05,4.87-1.55,4.47,1.99-.33,2.94,.05,7.53-4.39,7.68-12.04,.39-24.09,.19-36.14,.22-3.39,0-3.2-2.44-3.21-4.72-.02-6.53,0-13.07,0-19.6Z"/>
  <path class="cls-1" d="M255.48,146.1c0-6.33,.11-12.66-.05-18.99-.09-3.49,.8-5.12,4.78-5.03,10.4,.24,20.82,.15,31.22-.07,4.28-.09,5.68,2.26,6.43,5.81,.64,3.03,.06,4.57-3.54,4.46-7.34-.21-14.7-.05-22.05-.07-3.25-.01-6.38-.74-6.28,4.64,.1,5.56,3.6,4.27,6.63,4.34,3.67,.08,7.35,.13,11.02-.02,3.31-.13,5.56-.17,5.59,4.56,.03,4.96-2.23,5.13-5.92,4.96-4.48-.21-8.99,.15-13.47-.11-3.73-.22-3.88,1.87-3.72,4.57,.15,2.55-.7,5.44,3.68,5.33,7.75-.2,15.52-.16,23.27,.02,1.92,.04,5.6-1.31,5.34,1.8-.26,3.17-.59,8.01-5.68,8.1-11.23,.21-22.46,0-33.68,.14-3.25,.04-3.62-1.72-3.6-4.25,.05-6.74,.02-13.47,0-20.21Z"/>
  <path class="cls-3" d="M124.72,126.52c2.66,.55,5.26,2.15,7.79-.81,1.05-1.23,10.49,4.84,10.29,7.13-.57,6.52,5.13,9.48,7.34,14.35,.81,8.63,.54,17.26-.12,25.88-4.17,.11-7.55-1.04-10.85-4.07-1.91-1.75-4.14-7.93-8.76-2.36-.57,.68-1.73-.59-1.95-1.68-.31-1.55-.26-3.26-2.03-4.17-1.54,3.16,.93,6.94-1.68,9.84-.44-14.7-.63-29.41-.03-44.11Z"/>
  <path class="cls-3" d="M99.73,163.55c-5.84-.69-4.78-8-9.57-9.97-1.44-.59-2.28-3.22-4.41-2.31-5.21,2.22-6.41-1.49-7.55-5-.53-1.64-.82-3.56-2.7-3.57-7.18-.03-11.92-4.52-16.12-9.24-2.09-2.34-5.55-2.35-6.92-5.24,13.4-.1,26.81-.24,40.21-.26,4.54,0,7.46,2.31,7.46,7.01,0,9.53,.71,19.07-.41,28.58Z"/>
  <path class="cls-2" d="M124.74,170.63c2.61-2.9,.14-6.68,1.68-9.84,1.77,.91,1.72,2.62,2.03,4.17,.22,1.09,1.38,2.36,1.95,1.68,4.62-5.57,6.86,.61,8.76,2.36,3.3,3.03,6.69,4.18,10.85,4.07,1.09,5.57-.71,9.98-5.2,13.42-4.53,3.48-8.88,7.21-13.52,10.53-4.74,3.39-6.67,2.47-6.75-3.14-.1-7.75,.11-15.5,.19-23.25Z"/>
  <path class="cls-1" d="M442.32,146.66c0,6.53-.18,13.06,.06,19.58,.17,4.46-2.6,4.24-5.58,4.26-3.02,.02-5.62,.18-5.55-4.27,.22-13.25,.23-26.51,.07-39.77-.05-4.29,2.42-4.46,5.5-4.49,3.13-.02,5.63,.24,5.48,4.5-.23,6.72-.06,13.46-.06,20.19h.08Z"/>
  <path class="cls-2" d="M33.44,176.32c14.45-2.04,18.86-4.3,21.3-1.64,1.63,1.78-.05,3.11,0,11.47,.06,9.97,2.5,16.47-1.22,19.37-.17,.13-.26,.21-.42,.29-2.73,1.39-6.64-4.11-18.03-13.11-10.75-8.5-16.62-10.98-15.9-13.48,.52-1.8,3.95-1.45,14.26-2.9Z"/>
  <path class="cls-3" d="M73.28,72.77c-.08,2.08-1.75,3.11-2.92,4.48-3.77,4.46-2.61,7.76,.59,12.06,3.06,4.13,5.82,7.2,11.01,8.43,2.08,.5,.85,4.03,1.14,6.19-8.59,.04-17.17,.08-25.76,.11-3.3-3.56-6.6-7.11-9.91-10.67,8.34-7.21,16.63-14.49,25.84-20.61Z"/>
  <path class="cls-2" d="M47.44,93.39c3.3,3.56,6.6,7.11,9.91,10.67-4.43,.11-8.86,.24-13.29,.34-1.85,.04-3.84,.04-4.57-2.08-.7-2.05,.77-3.46,2.16-4.62,1.84-1.54,3.85-2.88,5.79-4.3Z"/>
</svg>